HIERARCHY
ROOT Hips
{
    OFFSET 0.000000 0.000000 0.000000
    CHANNELS 6 Xposition Yposition Zposition Zrotation Xrotation Yrotation
    JOINT Spine
    {
        OFFSET -0.000000 7.583482 0.000000
        CHANNELS 3 Zrotation Xrotation Yrotation
        JOINT Spine1
        {
            OFFSET -0.000000 19.647881 0.000000
            CHANNELS 3 Zrotation Xrotation Yrotation
            JOINT Neck
            {
                OFFSET -0.000000 19.567190 1.778835
                CHANNELS 3 Zrotation Xrotation Yrotation
                JOINT Head
                {
                    OFFSET -0.000000 12.947408 -1.849630
                    CHANNELS 3 Zrotation Xrotation Yrotation
                    End Site
                    {
                        OFFSET -0.000000 23.120371 0.000000
                    }
                }
            }
            JOINT LeftShoulder
            {
                OFFSET 3.632882 16.008181 -0.342244
                CHANNELS 3 Zrotation Xrotation Yrotation
                JOINT LeftArm
                {
                    OFFSET 15.804684 0.000000 0.000000
                    CHANNELS 3 Zrotation Xrotation Yrotation
                    JOINT LeftForeArm
                    {
                        OFFSET 25.677923 0.000000 0.000000
                        CHANNELS 3 Zrotation Xrotation Yrotation
                        JOINT LeftHand
                        {
                            OFFSET 26.158810 0.000000 0.000000
                            CHANNELS 3 Zrotation Xrotation Yrotation
                            End Site
                            {
                                OFFSET 13.872223 0.000000 0.000000
                            }
                        }
                    }
                }
            }
            JOINT RightShoulder
            {
                OFFSET -3.700243 16.008181 -0.342244
                CHANNELS 3 Zrotation Xrotation Yrotation
                JOINT RightArm
                {
                    OFFSET -15.804684 0.000000 0.000000
                    CHANNELS 3 Zrotation Xrotation Yrotation
                    JOINT RightForeArm
                    {
                        OFFSET -25.677923 0.000000 0.000000
                        CHANNELS 3 Zrotation Xrotation Yrotation
                        JOINT RightHand
                        {
                            OFFSET -26.158810 0.000000 0.000000
                            CHANNELS 3 Zrotation Xrotation Yrotation
                            End Site
                            {
                                OFFSET -13.872223 0.000000 0.000000
                            }
                        }
                    }
                }
            }
        }
    }
    JOINT LeftUpLeg
    {
        OFFSET 9.248149 0.000000 0.000000
        CHANNELS 3 Zrotation Xrotation Yrotation
        JOINT LeftLeg
        {
            OFFSET -0.000000 -43.254459 0.000000
            CHANNELS 3 Zrotation Xrotation Yrotation
            JOINT LeftFoot
            {
                OFFSET -0.000000 -33.301838 0.000000
                CHANNELS 3 Zrotation Xrotation Yrotation
                JOINT LeftToeBase
                {
                    OFFSET -0.000000 -6.011296 13.872223
                    CHANNELS 3 Zrotation Xrotation Yrotation
                    End Site
                    {
                        OFFSET -0.000000 0.000000 3.699259
                    }
                }
            }
        }
    }
    JOINT RightUpLeg
    {
        OFFSET -9.248149 0.000000 0.000000
        CHANNELS 3 Zrotation Xrotation Yrotation
        JOINT RightLeg
        {
            OFFSET -0.000000 -43.254459 0.000000
            CHANNELS 3 Zrotation Xrotation Yrotation
            JOINT RightFoot
            {
                OFFSET -0.000000 -33.301838 0.000000
                CHANNELS 3 Zrotation Xrotation Yrotation
                JOINT RightToeBase
                {
                    OFFSET -0.000000 -6.011296 13.872223
                    CHANNELS 3 Zrotation Xrotation Yrotation
                    End Site
                    {
                        OFFSET -0.000000 0.000000 3.699259
                    }
                }
            }
        }
    }
}
MOTION
Frames:    11
Frame Time:    0.010000
-19.889719    83.851723    -51.702965    4.416092    -5.122957    -174.461456    13.756009    -11.526620    -2.281796    -10.756136    6.145976    -3.097695    -15.088887    18.950977    1.645873    13.201502    -26.054474    6.122602    1.378266    19.810743    -3.415368    2.584334    54.535816    -74.585526    12.486844    -28.295673    -23.059393    -5.096288    -26.160711    3.516755    -1.183327    24.120039    2.272723    14.930216    47.370102    76.460754    -7.397478    -22.791145    0.717686    -4.168166    -22.585783    -4.838851    21.382137    -7.362040    1.398067    -9.797555    8.918430    6.007493    3.955661    -13.655458    2.999518    0.000000    0.000000    0.000000    -1.390099    -3.982754    -5.248111    3.891905    3.481551    5.533187    5.216446    -3.355954    -24.784056    0.000000    0.000000    0.000000    
-19.897772    83.859024    -51.685894    4.394920    -5.127244    -174.517639    13.706701    -11.522304    -2.268028    -10.737997    6.156846    -3.078299    -15.085998    18.896248    1.640334    13.272418    -25.945797    6.138634    1.403025    19.798065    -3.447106    2.873239    54.463364    -74.939346    12.649161    -28.177376    -23.127771    -5.082240    -25.997946    3.402984    -1.183589    24.127527    2.285254    14.789589    47.372955    76.537186    -7.414033    -22.828964    0.768205    -4.230249    -22.617355    -4.861115    21.355297    -7.351550    1.456814    -9.780571    8.924631    5.954064    3.981376    -13.648560    3.041809    0.000000    0.000000    0.000000    -1.409484    -4.020300    -5.213157    3.873300    3.516561    5.567507    5.336656    -3.445991    -24.835459    0.000000    0.000000    0.000000    
-19.912296    83.865097    -51.670170    4.361383    -5.141650    -174.573593    13.653341    -11.530568    -2.244886    -10.711847    6.165667    -3.051292    -15.124227    18.848520    1.627184    13.373744    -25.838482    6.155851    1.404247    19.801973    -3.479077    3.035838    54.368435    -75.167564    12.780206    -27.970572    -23.205906    -5.177082    -25.750360    3.241069    -1.214627    24.114658    2.287920    15.064956    47.317493    76.377495    -7.394682    -22.723410    0.725742    -4.223029    -22.515722    -4.827860    21.314163    -7.340180    1.498148    -9.787268    8.908190    5.953408    4.019390    -13.627623    3.027090    0.000000    0.000000    0.000000    -1.452144    -4.061580    -5.224344    3.869846    3.551910    5.633214    5.268898    -3.352651    -24.798698    0.000000    0.000000    0.000000    
-19.920233    83.870659    -51.649738    4.347275    -5.174242    -174.639679    13.598500    -11.542917    -2.214568    -10.679164    6.147507    -3.020307    -15.142953    18.852875    1.628448    13.472870    -25.778282    6.185406    1.416881    19.804670    -3.540634    3.160697    54.336845    -75.373123    12.895872    -28.040905    -23.247904    -5.579713    -25.787699    2.818212    -1.202434    24.125256    2.297291    15.041522    47.308990    76.355453    -7.343763    -22.685005    0.742969    -4.357874    -22.465767    -4.984122    21.292789    -7.353733    1.590428    -9.769318    8.920211    5.877499    3.974000    -13.620468    3.037724    0.000000    0.000000    0.000000    -1.467813    -4.127755    -5.178225    3.855916    3.573250    5.603475    5.380741    -3.422631    -24.805029    0.000000    0.000000    0.000000    
-19.931438    83.875641    -51.639027    4.314870    -5.168630    -174.703705    13.520608    -11.519808    -2.194371    -10.632272    6.134745    -2.993087    -15.177021    18.818642    1.627041    13.584030    -25.680008    6.217285    1.430711    19.819183    -3.572186    3.361764    54.321373    -75.623184    13.096043    -27.918747    -23.268454    -5.672678    -25.624615    2.802778    -1.211208    24.118820    2.314383    14.988570    47.333324    76.354591    -7.292682    -22.722729    0.751813    -4.391994    -22.501688    -4.991471    21.256989    -7.302891    1.607681    -9.774979    8.866408    5.902979    3.990232    -13.599937    3.056375    0.000000    0.000000    0.000000    -1.495378    -4.123864    -5.158428    3.838929    3.544224    5.563798    5.431040    -3.380746    -24.749882    0.000000    0.000000    0.000000    
-20.062424    83.883240    -51.568855    4.323951    -5.088290    -174.174179    13.713614    -11.410272    -2.452626    -10.880073    6.023910    -3.254976    -15.165071    18.783390    1.633924    13.609835    -25.616558    6.231957    1.418064    19.803261    -3.579402    3.619212    54.322800    -75.870628    13.174935    -27.854483    -23.358486    -5.516690    -25.533489    2.861278    -1.234115    24.093115    2.342360    14.886744    47.393505    76.376450    -7.275775    -22.736799    0.762987    -4.345028    -22.516592    -5.006665    21.057247    -7.588568    0.888607    -9.683141    8.983489    6.011543    4.122371    -13.733406    3.175926    0.000000    0.000000    0.000000    -1.673965    -4.011142    -5.918376    3.963319    3.567755    5.687506    5.435283    -3.319257    -24.659729    0.000000    0.000000    0.000000    
-20.080198    83.884338    -51.552097    4.310363    -5.074389    -174.183731    13.653886    -11.373444    -2.458271    -10.839826    5.996411    -3.254885    -15.214084    18.751051    1.640839    13.742298    -25.518879    6.279398    1.422872    19.811432    -3.598668    3.754713    54.317657    -76.034889    13.223301    -27.840643    -23.405146    -5.553473    -25.505295    2.845797    -1.225166    24.114145    2.345779    14.790040    47.404552    76.402382    -7.212050    -22.754230    0.738559    -4.306222    -22.538149    -4.986301    21.039927    -7.587111    0.959496    -9.690491    9.020558    5.948732    4.107490    -13.828199    3.233662    0.000000    0.000000    0.000000    -1.674986    -4.006483    -5.967609    3.905791    3.552935    5.639518    5.394433    -3.212548    -24.533245    0.000000    0.000000    0.000000    
-20.103819    83.883705    -51.532810    4.306915    -5.084446    -174.188232    13.620417    -11.370184    -2.457980    -10.809148    5.996851    -3.252397    -15.248165    18.714560    1.643347    13.821353    -25.451841    6.307343    1.399259    19.803551    -3.603086    3.888640    54.310993    -76.154869    13.214104    -27.820875    -23.477596    -5.542516    -25.477434    2.816794    -1.246299    24.123852    2.355162    14.786582    47.408264    76.401047    -7.132902    -22.713461    0.619925    -4.208747    -22.517092    -4.735257    21.023075    -7.604579    0.988765    -9.700905    9.040220    5.853932    4.177190    -13.908119    3.347961    0.000000    0.000000    0.000000    -1.690724    -4.014976    -5.857285    3.900066    3.511589    5.511627    5.430062    -3.198284    -24.512157    0.000000    0.000000    0.000000    
-20.133617    83.883789    -51.513302    4.285048    -5.082529    -174.188965    13.571507    -11.342235    -2.464782    -10.785039    5.977411    -3.254004    -15.249867    18.660147    1.644306    13.835676    -25.340790    6.308469    1.380758    19.797302    -3.587477    3.977925    54.322536    -76.242020    13.182372    -27.841928    -23.554667    -5.553420    -25.497196    2.825815    -1.277761    24.130735    2.367879    14.737185    47.447388    76.431007    -7.054365    -22.720528    0.551632    -4.220380    -22.528502    -4.720709    20.980438    -7.616485    1.008278    -9.698013    9.064978    5.816896    4.175497    -13.950754    3.388658    0.000000    0.000000    0.000000    -1.735870    -4.028913    -5.852355    3.895484    3.535577    5.538035    5.471056    -3.226991    -24.536196    0.000000    0.000000    0.000000    
-20.178127    83.887527    -51.496799    4.262237    -5.072207    -174.168533    13.574244    -11.313311    -2.470025    -10.841910    5.959827    -3.254735    -15.261009    18.599169    1.652828    13.927004    -25.229965    6.345876    1.407131    19.802700    -3.588715    3.968366    54.342827    -76.246925    13.146683    -27.830368    -23.621510    -5.590119    -25.485170    2.812884    -1.250239    24.119453    2.378758    14.690369    47.500622    76.423943    -6.916169    -22.636986    0.472582    -4.273630    -22.449043    -4.685626    20.917459    -7.627976    1.014058    -9.679806    9.078722    5.850428    4.210784    -13.996936    3.388242    0.000000    0.000000    0.000000    -1.799304    -4.022917    -5.856514    3.917206    3.536268    5.512969    5.473411    -3.218278    -24.545120    0.000000    0.000000    0.000000    
-20.215141    83.890778    -51.476013    4.252250    -5.079242    -174.140121    13.547233    -11.295012    -2.480037    -10.834921    5.934999    -3.262574    -15.298920    18.529530    1.654011    14.027429    -25.084639    6.375415    1.404763    19.793497    -3.594253    3.979710    54.386810    -76.254578    13.100735    -27.829592    -23.656475    -5.632828    -25.489489    2.792626    -1.263877    24.137701    2.381952    14.998214    47.446659    76.237915    -6.821761    -22.565121    0.285824    -4.231164    -22.391729    -4.616201    20.883331    -7.670728    1.010950    -9.690742    9.105484    5.833241    4.187937    -14.038660    3.388002    0.000000    0.000000    0.000000    -1.844084    -4.038320    -5.866257    3.925987    3.536999    5.421748    5.518768    -3.192374    -24.479073    0.000000    0.000000    0.000000    
